<svg xmlns="http://www.w3.org/2000/svg" viewBox="0 0 1000 300" width="100%" height="auto" fill="none">
    <defs>
      <linearGradient id="cube" x1="0" y1="0" x2="1" y2="1">
        <stop offset="0%" stop-color="#2f6bff" stop-opacity="0.9"/>
        <stop offset="100%" stop-color="#7b4dff" stop-opacity="0.5"/>
      </linearGradient>
      <radialGradient id="field" cx="50%" cy="50%" r="60%">
        <stop offset="0%" stop-color="#2f6bff" stop-opacity="0.18"/>
        <stop offset="100%" stop-color="#05070f" stop-opacity="0"/>
      </radialGradient>
    </defs>
    <rect width="1000" height="300" fill="url(#field)"/>
    <g stroke="url(#cube)" stroke-width="1.2" fill="none">
      <g transform="translate(140 90)"><path d="M0 30 L45 5 L90 30 L90 80 L45 105 L0 80 Z"/><path d="M0 30 L45 55 L90 30 M45 55 L45 105"/></g>
      <g transform="translate(330 40) scale(1.35)"><path d="M0 30 L45 5 L90 30 L90 80 L45 105 L0 80 Z"/><path d="M0 30 L45 55 L90 30 M45 55 L45 105"/></g>
      <g transform="translate(600 100) scale(0.8)"><path d="M0 30 L45 5 L90 30 L90 80 L45 105 L0 80 Z"/><path d="M0 30 L45 55 L90 30 M45 55 L45 105"/></g>
      <g transform="translate(780 60) scale(1.1)"><path d="M0 30 L45 5 L90 30 L90 80 L45 105 L0 80 Z"/><path d="M0 30 L45 55 L90 30 M45 55 L45 105"/></g>
    </g>
    <g stroke="#4d84ff" stroke-opacity="0.3" stroke-width="0.8">
      <path d="M230 145 L400 120 M490 120 L640 165 M700 165 L830 130"/>
    </g>
  </svg>